<?xml version="1.0" encoding="UTF-8"?>
<svg width="80px" height="80px" viewBox="0 0 80 80" version="1.1" xmlns="http://www.w3.org/2000/svg" xmlns:xlink="http://www.w3.org/1999/xlink">
    <title>own-the-hou-favi</title>
    <g id="own-the-hou-favi" stroke="none" stroke-width="1" fill="none" fill-rule="evenodd">
        <g id="Logo---on-dark" transform="translate(4.284981, 12.122396)">
            <g id="HOU" transform="translate(10.393856, 10.429272)">
                <polygon id="U" fill="#FFFFFF" fill-rule="nonzero" points="37.0314335 12.168529 40.081081 15.3233893 40.081081 42.6950645 47.4873677 42.6950645 47.4873677 22.9847573 50.5370151 26.1398354 50.5370151 45.744712 37.0314335 45.744712"></polygon>
                <path d="M25.2685076,0 L35.7244417,10.8164461 L35.7244417,45.744712 L20.0405405,45.744712 L20.0405405,5.40833195 L25.2685076,0 Z M25.2685076,4.3877892 L23.0901879,6.64104302 L23.0901879,42.6950645 L32.6747943,42.6950645 L32.6747943,12.049375 L25.2685076,4.3877892 Z" id="O" fill="#FFFFFF" fill-rule="nonzero"></path>
                <polygon id="H---right" fill="#FFFFFF" points="18.7335487 6.7601971 18.7335487 45.744712 15.6839012 45.7444941 15.6839012 34.199618 3.70314335 34.1994002 3.70314335 31.1497527 15.6839012 31.1499705 15.6839012 9.9150574"></polygon>
                <polygon id="H---left" fill="#E96E23" points="3.04964746 22.9847573 3.04964746 45.744712 0 45.744712 0 26.1398354"></polygon>
            </g>
            <polygon id="Roof" fill="#FFFFFF" fill-rule="nonzero" points="43.0686506 7.54888028 35.7712792 0 0 37.0047716 5.73552404 37.0047716 35.6623639 6.04583974 65.5892037 37.0047716 71.5425605 37.0047716 47.4252898 12.0558236 47.4252898 3.67648149 43.0686506 3.67648149"></polygon>
        </g>
    </g>
</svg>